<svg width="15" height="17" viewBox="0 0 15 17" fill="none" xmlns="http://www.w3.org/2000/svg">
<path fill-rule="evenodd" clip-rule="evenodd" d="M14.2179 0.904785H12.7828H2.88776H0.559509V3.27992V13.0866V15.7494C0.559509 15.9068 0.620834 16.0579 0.729992 16.1692C0.83915 16.2806 0.9872 16.3431 1.14157 16.3431H11.6187L11.6249 16.3431H14.149V15.1548H10.545V15.1556H1.72364C1.72364 14.8406 1.84628 14.5385 2.0646 14.3158C2.28292 14.0931 2.57902 13.968 2.88776 13.968H12.7828C12.7909 13.968 12.7988 13.9678 12.8068 13.9675H14.2179V13.0866H14.2179V0.904785ZM7.58166 1.85687H12.2142V8.62396L9.93058 6.80461L7.58166 8.62396V1.85687Z" fill="#141414"/>
</svg>
