<svg width="16" height="15" viewBox="0 0 16 15" fill="none" xmlns="http://www.w3.org/2000/svg">
<path fill-rule="evenodd" clip-rule="evenodd" d="M15.468 4.4228V3.21192H5.16599V3.21203H1.89486C1.73123 3.21203 1.5743 3.14703 1.4586 3.03132C1.34289 2.91562 1.27789 2.75869 1.27789 2.59506C1.27789 2.43143 1.34289 2.2745 1.4586 2.15879C1.5743 2.04309 1.73123 1.97809 1.89486 1.97809H12.3834C12.4091 1.97809 12.4347 1.97648 12.4599 1.97332H13.0001V1.37885C13.0003 1.37295 13.0004 1.36703 13.0004 1.36111C13.0004 1.35519 13.0003 1.34928 13.0001 1.34338V0.744167H12.3892C12.3872 0.74415 12.3853 0.744141 12.3834 0.744141H1.89486C1.40397 0.744141 0.933181 0.939148 0.586067 1.28626C0.238952 1.63338 0.0439453 2.10416 0.0439453 2.59506V12.4666C0.0439453 12.9575 0.238952 13.4283 0.586067 13.7754C0.933181 14.1225 1.40397 14.3175 1.89486 14.3175H5.16599V14.3176H15.468V13.1068L15.4683 13.0836V4.44598L15.468 4.4228ZM10.9438 9.22579C11.096 9.32748 11.2749 9.38176 11.4579 9.38176C11.7034 9.38176 11.9388 9.28425 12.1123 9.1107C12.2859 8.93714 12.3834 8.70175 12.3834 8.4563C12.3834 8.27326 12.3291 8.09433 12.2274 7.94214C12.1257 7.78995 11.9812 7.67133 11.8121 7.60129C11.643 7.53124 11.4569 7.51291 11.2774 7.54862C11.0979 7.58433 10.933 7.67247 10.8035 7.8019C10.6741 7.93133 10.586 8.09623 10.5503 8.27575C10.5146 8.45527 10.5329 8.64135 10.6029 8.81046C10.673 8.97956 10.7916 9.1241 10.9438 9.22579Z" fill="black"/>
</svg>
