<svg width="15" height="13" viewBox="0 0 15 13" fill="none" xmlns="http://www.w3.org/2000/svg">
<path d="M14.449 4.19544C14.4501 4.68432 14.3542 5.16856 14.167 5.62015C13.9798 6.07175 13.7048 6.48173 13.3581 6.8264L7.62777 12.6414C7.58001 12.6899 7.52307 12.7285 7.46027 12.7548C7.39748 12.781 7.33008 12.7946 7.26201 12.7946C7.19393 12.7946 7.12653 12.781 7.06374 12.7548C7.00095 12.7285 6.94401 12.6899 6.89624 12.6414L1.1659 6.8264C0.467275 6.12862 0.0744549 5.1819 0.0738532 4.1945C0.0732515 3.2071 0.464918 2.25991 1.16269 1.56128C1.86046 0.862661 2.80718 0.469841 3.79458 0.469239C4.78198 0.468637 5.72918 0.860304 6.4278 1.55808L7.26201 2.33774L8.10199 1.55551C8.62333 1.03675 9.28668 0.684089 10.0083 0.542034C10.7299 0.39998 11.4774 0.474905 12.1565 0.757351C12.8356 1.0398 13.4157 1.5171 13.8237 2.129C14.2317 2.74091 14.4493 3.45998 14.449 4.19544Z" fill="#141414"/>
</svg>
