<svg width="1296" height="501" viewBox="0 0 1296 501" fill="none" xmlns="http://www.w3.org/2000/svg">
<mask id="mask0_5103_7683" style="mask-type:alpha" maskUnits="userSpaceOnUse" x="-42" y="-97" width="1380" height="598">
<g clip-path="url(#clip0_5103_7683)">
<line x1="1338" y1="47.5" x2="-42" y2="47.4999" stroke="white"/>
<line x1="1338" y1="95.5" x2="-42" y2="95.4999" stroke="white"/>
<line x1="1338" y1="143.5" x2="-42" y2="143.5" stroke="white"/>
<line x1="1338" y1="191.5" x2="-42" y2="191.5" stroke="white"/>
<line x1="1338" y1="239.5" x2="-42" y2="239.5" stroke="white"/>
<line x1="1338" y1="287.501" x2="-42" y2="287.501" stroke="white"/>
<line x1="1338" y1="335.501" x2="-42" y2="335.501" stroke="white"/>
<line x1="1338" y1="383.501" x2="-42" y2="383.501" stroke="white"/>
<line x1="1338" y1="431.501" x2="-42" y2="431.501" stroke="white"/>
<line x1="1338" y1="479.501" x2="-42" y2="479.501" stroke="white"/>
</g>
</mask>
<g mask="url(#mask0_5103_7683)">
<mask id="mask1_5103_7683" style="mask-type:luminance" maskUnits="userSpaceOnUse" x="-42" y="-97" width="1380" height="598">
<rect x="1338" y="-97" width="598" height="1380" rx="0.01" transform="rotate(90 1338 -97)" fill="url(#paint0_radial_5103_7683)"/>
</mask>
<g mask="url(#mask1_5103_7683)">
<rect width="598" height="1380" transform="translate(1338 -97) rotate(90)" fill="#131416" fill-opacity="0.08"/>
</g>
</g>
<defs>
<radialGradient id="paint0_radial_5103_7683" cx="0" cy="0" r="1" gradientUnits="userSpaceOnUse" gradientTransform="translate(1637 593) rotate(90) scale(690 299)">
<stop offset="0.0885417" stop-color="white"/>
<stop offset="0.159177" stop-color="#FEFEFE"/>
<stop offset="0.221106" stop-color="#FAFAFA"/>
<stop offset="0.275806" stop-color="#F3F3F3"/>
<stop offset="0.324755" stop-color="#EAEAEA"/>
<stop offset="0.369431" stop-color="#E0E0E0"/>
<stop offset="0.411312" stop-color="#D3D3D3"/>
<stop offset="0.451874" stop-color="#C4C4C4"/>
<stop offset="0.492597" stop-color="#B3B3B3"/>
<stop offset="0.534957" stop-color="#A1A1A1"/>
<stop offset="0.580431" stop-color="#8E8E8E"/>
<stop offset="0.630499" stop-color="#797979"/>
<stop offset="0.686637" stop-color="#646464"/>
<stop offset="0.750323" stop-color="#4D4D4D"/>
<stop offset="0.823035" stop-color="#363636"/>
<stop offset="0.90625" stop-color="#1E1E1E"/>
<stop offset="1"/>
</radialGradient>
<clipPath id="clip0_5103_7683">
<rect width="598" height="1380" fill="white" transform="translate(1338 -97) rotate(90)"/>
</clipPath>
</defs>
</svg>
