<svg width="11" height="14" viewBox="0 0 11 14" fill="none" xmlns="http://www.w3.org/2000/svg">
<path d="M10.6631 8.97852C10.6631 9.94597 10.2485 10.711 9.41925 11.2737C8.59988 11.8365 7.46954 12.1573 6.02823 12.2363V13.1544H4.87321V12.2363C3.4714 12.177 2.3608 11.8513 1.54143 11.2589C0.722055 10.6568 0.29756 9.79295 0.267944 8.66755H2.87414C2.94325 9.5659 3.6096 10.0743 4.87321 10.1928V7.39407C4.37962 7.29535 3.96499 7.2065 3.62935 7.12752C3.30357 7.04855 2.9235 6.92515 2.48914 6.75733C2.06464 6.57963 1.72406 6.38713 1.46739 6.17982C1.21072 5.9725 0.988598 5.70103 0.80103 5.36538C0.613463 5.01986 0.519679 4.63485 0.519679 4.21036C0.519679 3.27252 0.914558 2.53213 1.70431 1.98917C2.50394 1.43634 3.56024 1.12537 4.87321 1.05627V0.09375H6.02823V1.05627C6.82786 1.10563 7.52877 1.24877 8.13096 1.4857C8.73315 1.72262 9.23662 2.10763 9.64137 2.64072C10.0461 3.1738 10.2534 3.83029 10.2633 4.61017H7.71634C7.61762 3.71183 7.05492 3.20342 6.02823 3.08496V5.78C6.3935 5.83923 6.68966 5.88859 6.91671 5.92808C7.15364 5.96757 7.4498 6.03174 7.80519 6.12058C8.17045 6.20943 8.46661 6.30321 8.69366 6.40193C8.93059 6.50065 9.18233 6.63393 9.44887 6.80175C9.72528 6.9597 9.94247 7.1374 10.1004 7.33484C10.2584 7.53227 10.3916 7.77414 10.5002 8.06042C10.6088 8.33684 10.6631 8.64287 10.6631 8.97852ZM3.19992 4.25478C3.19992 4.83723 3.75768 5.27159 4.87321 5.55788V3.05534C4.37962 3.1047 3.97487 3.23303 3.65896 3.44035C3.35293 3.63779 3.19992 3.90926 3.19992 4.25478ZM6.02823 10.1928C7.29185 10.0743 7.92365 9.65968 7.92365 8.9489C7.92365 8.62313 7.77064 8.36152 7.4646 8.16408C7.15857 7.96664 6.67978 7.78895 6.02823 7.63099V10.1928Z" fill="#141414"/>
</svg>
