<?xml version="1.0" standalone="no"?>
<!DOCTYPE svg PUBLIC "-//W3C//DTD SVG 20010904//EN"
 "http://www.w3.org/TR/2001/REC-SVG-20010904/DTD/svg10.dtd">
<svg version="1.0" xmlns="http://www.w3.org/2000/svg"
 width="2373.000000pt" height="2327.000000pt" viewBox="0 0 2373.000000 2327.000000"
 preserveAspectRatio="xMidYMid meet">

<g transform="translate(0.000000,2327.000000) scale(0.100000,-0.100000)"
fill="#000000" stroke="none">
<path d="M19605 23253 c-16 -2 -57 -11 -90 -20 -33 -8 -445 -70 -915 -137
l-855 -121 -275 -172 c-151 -94 -304 -193 -340 -220 -140 -106 -755 -553
-1140 -829 -2819 -2019 -5342 -3598 -7056 -4418 -724 -346 -1271 -558 -1758
-681 -76 -19 -141 -36 -143 -38 -1 -2 14 -9 36 -15 51 -16 116 -87 131 -144
11 -38 8 -65 -24 -228 -464 -2375 -205 -4854 729 -6975 277 -628 667 -1303
1062 -1838 106 -143 121 -177 109 -243 -8 -38 -65 -109 -98 -120 -32 -10 -1
-24 55 -24 114 0 619 -59 987 -116 1764 -270 4530 -988 7855 -2041 1028 -325
1715 -555 2140 -716 l370 -140 465 12 c256 7 549 14 652 16 174 4 196 6 295
35 205 59 374 158 543 317 692 652 1161 2245 1330 4518 73 990 79 2264 15
3430 -161 2916 -709 5820 -1496 7922 -679 1816 -1452 2839 -2248 2978 -76 14
-263 18 -336 8z m325 -600 c385 -126 821 -648 1245 -1488 982 -1947 1725
-5309 1925 -8705 36 -628 41 -789 47 -1525 8 -1020 -15 -1631 -93 -2445 -193
-2032 -677 -3465 -1282 -3802 -120 -67 -241 -83 -376 -48 -381 97 -823 599
-1246 1414 -1032 1987 -1807 5535 -1985 9081 -46 926 -48 1967 -5 2785 119
2237 542 3917 1144 4538 200 207 400 269 626 195z"/>
<path d="M19975 20092 c-238 -82 -432 -361 -595 -852 -280 -847 -418 -2308
-370 -3925 10 -333 33 -829 46 -973 l6 -72 84 80 c140 134 308 229 492 277
119 31 318 42 444 24 256 -37 529 -189 711 -395 160 -181 263 -388 319 -636
20 -90 23 -132 23 -295 0 -208 -11 -282 -67 -450 -199 -596 -785 -945 -1361
-811 -120 28 -288 101 -385 168 -24 17 -45 28 -47 26 -5 -4 77 -529 125 -803
361 -2042 902 -3629 1463 -4293 198 -234 415 -348 593 -312 198 40 365 211
514 523 277 583 448 1572 501 2902 13 333 7 1493 -10 1810 -20 375 -42 700
-67 995 -251 3018 -973 5760 -1765 6705 -221 262 -459 374 -654 307z"/>
<path d="M6710 16569 c-184 -27 -958 -123 -1315 -163 -1222 -138 -2520 -243
-3523 -285 -239 -10 -208 4 -397 -186 -477 -477 -872 -1143 -1130 -1907 -368
-1094 -442 -2404 -209 -3758 259 -1510 911 -2698 1879 -3425 279 -209 610
-390 877 -480 l103 -34 435 59 c239 33 447 60 461 60 24 0 99 -156 1537 -3223
l1512 -3222 1223 46 c673 26 1230 48 1238 50 12 3 -178 688 -948 3418 -529
1878 -960 3417 -958 3420 8 7 633 90 764 101 68 5 205 10 305 10 163 0 178 1
159 15 -55 39 -435 590 -620 900 -834 1398 -1352 3030 -1512 4770 -42 447 -46
560 -46 1170 0 610 4 723 46 1170 37 399 97 818 174 1217 40 207 48 232 83
271 31 33 39 32 -138 6z"/>
</g>
</svg>
