<?xml version="1.0" encoding="UTF-8"?>
<svg xmlns="http://www.w3.org/2000/svg" xmlns:xlink="http://www.w3.org/1999/xlink" width="32px" height="32px" viewBox="0 0 32 31" version="1.1">
<g id="surface1">
<path style=" stroke:none;fill-rule:nonzero;fill:rgb(40.000001%,56.470591%,19.215687%);fill-opacity:1;" d="M 14.023438 15 C 14.023438 10.984375 12.238281 7.285156 9.109375 4.742188 C 9.152344 4.722656 9.195312 4.691406 9.234375 4.671875 C 9.296875 4.640625 9.351562 4.601562 9.414062 4.570312 C 9.484375 4.53125 9.558594 4.488281 9.628906 4.449219 C 9.683594 4.417969 9.746094 4.386719 9.796875 4.355469 C 9.871094 4.316406 9.953125 4.273438 10.023438 4.234375 C 10.078125 4.203125 10.128906 4.183594 10.179688 4.152344 C 10.265625 4.113281 10.347656 4.070312 10.429688 4.03125 C 10.480469 4.011719 10.535156 3.992188 10.574219 3.96875 C 10.660156 3.929688 10.753906 3.890625 10.835938 3.859375 C 10.878906 3.839844 10.929688 3.816406 10.96875 3.808594 C 11.0625 3.765625 11.15625 3.738281 11.25 3.695312 C 11.292969 3.6875 11.335938 3.664062 11.375 3.65625 C 11.480469 3.613281 11.574219 3.585938 11.675781 3.554688 C 11.707031 3.542969 11.738281 3.535156 11.78125 3.523438 C 11.894531 3.492188 12 3.453125 12.113281 3.421875 C 12.132812 3.410156 12.164062 3.410156 12.1875 3.402344 C 12.300781 3.371094 12.425781 3.332031 12.550781 3.300781 C 12.558594 3.300781 12.582031 3.289062 12.589844 3.289062 C 13.589844 3.046875 14.605469 2.914062 15.65625 2.914062 C 16.808594 2.914062 17.941406 3.066406 19.042969 3.371094 C 19.386719 3.460938 19.738281 3.269531 19.84375 2.933594 C 19.9375 2.597656 19.738281 2.253906 19.398438 2.160156 C 18.191406 1.824219 16.933594 1.652344 15.667969 1.652344 C 12.945312 1.652344 10.316406 2.4375 8.070312 3.910156 C 7.925781 4 7.792969 4.101562 7.65625 4.195312 C 7.53125 4.285156 7.40625 4.378906 7.292969 4.457031 C 6.449219 5.097656 5.703125 5.808594 5.058594 6.59375 C 3.105469 8.941406 2.023438 11.878906 2.023438 15 C 2.023438 15.261719 2.035156 15.527344 2.046875 15.792969 C 2.273438 19.703125 4.21875 23.273438 7.457031 25.660156 L 7.644531 25.792969 C 7.761719 25.875 7.894531 25.914062 8.03125 25.914062 C 8.164062 25.914062 8.300781 25.875 8.40625 25.800781 C 8.414062 25.792969 8.425781 25.792969 8.433594 25.78125 C 8.433594 25.78125 8.445312 25.773438 8.445312 25.773438 C 8.445312 25.773438 8.445312 25.773438 8.457031 25.773438 C 11.9375 23.261719 14.023438 19.238281 14.023438 15 M 3.324219 14.246094 C 3.335938 14.042969 3.355469 13.839844 3.375 13.636719 C 3.386719 13.585938 3.386719 13.535156 3.398438 13.472656 C 3.417969 13.300781 3.4375 13.136719 3.46875 12.964844 C 3.480469 12.894531 3.488281 12.832031 3.511719 12.761719 C 3.542969 12.609375 3.574219 12.457031 3.605469 12.304688 C 3.625 12.234375 3.636719 12.164062 3.65625 12.089844 C 3.6875 11.949219 3.730469 11.808594 3.769531 11.664062 C 3.792969 11.59375 3.8125 11.523438 3.832031 11.449219 C 3.875 11.308594 3.925781 11.167969 3.96875 11.035156 C 3.988281 10.964844 4.019531 10.890625 4.039062 10.820312 C 4.039062 10.8125 4.039062 10.8125 4.050781 10.800781 C 4.101562 10.667969 4.15625 10.535156 4.207031 10.402344 C 4.238281 10.34375 4.257812 10.273438 4.289062 10.210938 C 4.300781 10.179688 4.320312 10.148438 4.332031 10.128906 C 4.382812 10.019531 4.433594 9.90625 4.488281 9.792969 C 4.519531 9.734375 4.539062 9.683594 4.570312 9.621094 C 4.589844 9.570312 4.621094 9.53125 4.644531 9.480469 C 4.695312 9.378906 4.746094 9.285156 4.800781 9.195312 C 4.832031 9.144531 4.851562 9.09375 4.882812 9.050781 C 4.914062 8.992188 4.953125 8.929688 4.996094 8.871094 C 5.046875 8.777344 5.101562 8.695312 5.164062 8.605469 C 5.183594 8.566406 5.203125 8.535156 5.234375 8.492188 C 5.289062 8.421875 5.339844 8.351562 5.390625 8.269531 C 5.453125 8.179688 5.503906 8.097656 5.578125 8.003906 C 5.589844 7.984375 5.609375 7.964844 5.621094 7.945312 C 5.683594 7.863281 5.746094 7.78125 5.808594 7.699219 C 5.878906 7.609375 5.953125 7.507812 6.023438 7.414062 C 6.097656 7.324219 6.179688 7.242188 6.253906 7.152344 C 6.328125 7.058594 6.398438 6.980469 6.480469 6.886719 C 6.523438 6.847656 6.566406 6.804688 6.597656 6.765625 C 5.527344 9.449219 4.984375 12.273438 4.984375 15.203125 C 4.984375 17.875 5.433594 20.464844 6.328125 22.9375 C 6.285156 22.894531 6.253906 22.855469 6.210938 22.8125 C 6.171875 22.761719 6.128906 22.722656 6.085938 22.671875 C 5.972656 22.539062 5.871094 22.40625 5.765625 22.265625 C 5.734375 22.226562 5.703125 22.183594 5.660156 22.132812 C 5.652344 22.113281 5.640625 22.101562 5.628906 22.082031 C 5.535156 21.949219 5.441406 21.828125 5.351562 21.695312 C 5.328125 21.664062 5.296875 21.625 5.277344 21.59375 C 5.257812 21.5625 5.234375 21.535156 5.214844 21.503906 C 5.132812 21.371094 5.046875 21.25 4.964844 21.117188 C 4.945312 21.085938 4.933594 21.066406 4.914062 21.035156 C 4.894531 20.996094 4.863281 20.953125 4.839844 20.902344 C 4.769531 20.769531 4.695312 20.640625 4.621094 20.496094 C 4.613281 20.476562 4.601562 20.464844 4.589844 20.445312 C 4.570312 20.394531 4.539062 20.34375 4.519531 20.292969 C 4.445312 20.152344 4.382812 20.007812 4.3125 19.867188 L 4.300781 19.847656 C 4.28125 19.785156 4.25 19.734375 4.226562 19.671875 C 4.164062 19.53125 4.101562 19.378906 4.050781 19.226562 C 4.03125 19.164062 4 19.105469 3.976562 19.042969 C 3.925781 18.890625 3.875 18.738281 3.824219 18.585938 C 3.800781 18.523438 3.78125 18.464844 3.761719 18.394531 C 3.707031 18.242188 3.667969 18.078125 3.636719 17.914062 C 3.613281 17.855469 3.605469 17.792969 3.59375 17.730469 C 3.550781 17.570312 3.519531 17.398438 3.488281 17.234375 C 3.480469 17.183594 3.46875 17.121094 3.457031 17.070312 C 3.429688 16.890625 3.398438 16.707031 3.375 16.523438 C 3.367188 16.480469 3.367188 16.441406 3.355469 16.390625 C 3.335938 16.167969 3.3125 15.953125 3.292969 15.730469 C 3.292969 15.71875 3.292969 15.710938 3.292969 15.710938 C 3.28125 15.476562 3.273438 15.230469 3.273438 15 C 3.273438 14.765625 3.28125 14.53125 3.292969 14.308594 C 3.324219 14.285156 3.324219 14.265625 3.324219 14.246094 M 7.90625 23.433594 C 6.835938 20.820312 6.285156 18.066406 6.285156 15.203125 C 6.285156 12.34375 6.824219 9.582031 7.90625 6.96875 C 8.976562 9.582031 9.527344 12.335938 9.527344 15.203125 C 9.527344 18.066406 8.976562 20.832031 7.90625 23.433594 M 12.738281 15 C 12.738281 18.109375 11.488281 21.085938 9.339844 23.324219 C 10.316406 20.742188 10.816406 18.015625 10.816406 15.210938 C 10.816406 12.140625 10.222656 9.183594 9.046875 6.390625 C 11.40625 8.644531 12.738281 11.707031 12.738281 15 "/>
<path style=" stroke:none;fill-rule:nonzero;fill:rgb(40.000001%,56.470591%,19.215687%);fill-opacity:1;" d="M 23.90625 4.367188 C 23.832031 4.304688 23.75 4.253906 23.667969 4.195312 C 23.4375 4.03125 23.136719 4.042969 22.910156 4.195312 C 19.386719 6.703125 17.289062 10.738281 17.289062 15 C 17.289062 18.960938 19.105469 22.722656 22.203125 25.253906 C 20.238281 26.453125 17.992188 27.082031 15.65625 27.082031 C 14.429688 27.082031 13.226562 26.910156 12.0625 26.566406 C 11.71875 26.464844 11.367188 26.644531 11.261719 26.980469 C 11.15625 27.316406 11.355469 27.664062 11.6875 27.765625 C 12.976562 28.152344 14.304688 28.34375 15.65625 28.34375 C 18.554688 28.34375 21.328125 27.460938 23.667969 25.800781 C 27.1875 23.300781 29.296875 19.257812 29.296875 15 C 29.296875 10.789062 27.335938 6.90625 23.90625 4.367188 M 27.675781 17.785156 C 27.65625 17.886719 27.625 17.976562 27.59375 18.078125 C 27.5625 18.199219 27.53125 18.332031 27.488281 18.453125 C 27.457031 18.554688 27.429688 18.65625 27.386719 18.75 C 27.34375 18.871094 27.304688 18.992188 27.261719 19.113281 C 27.21875 19.214844 27.1875 19.308594 27.148438 19.410156 C 27.09375 19.53125 27.054688 19.644531 27 19.753906 C 26.960938 19.855469 26.910156 19.949219 26.867188 20.050781 C 26.816406 20.160156 26.761719 20.273438 26.699219 20.386719 C 26.648438 20.476562 26.597656 20.578125 26.542969 20.667969 C 26.480469 20.78125 26.421875 20.894531 26.359375 20.996094 C 26.304688 21.085938 26.242188 21.179688 26.191406 21.269531 C 26.128906 21.371094 26.054688 21.484375 25.992188 21.585938 C 25.929688 21.675781 25.871094 21.765625 25.808594 21.847656 C 25.734375 21.949219 25.660156 22.050781 25.589844 22.152344 C 25.527344 22.246094 25.453125 22.328125 25.390625 22.40625 C 25.308594 22.507812 25.234375 22.601562 25.152344 22.703125 C 25.078125 22.785156 25.007812 22.863281 24.933594 22.945312 C 24.851562 23.039062 24.769531 23.128906 24.675781 23.222656 C 24.601562 23.300781 24.519531 23.382812 24.445312 23.453125 C 24.351562 23.546875 24.269531 23.628906 24.175781 23.71875 C 24.113281 23.78125 24.039062 23.839844 23.976562 23.902344 L 23.976562 21.269531 L 23.988281 21.269531 C 23.988281 21.21875 23.976562 21.179688 23.976562 21.128906 C 24.050781 19.054688 25.703125 17.375 27.792969 17.203125 C 27.78125 17.265625 27.761719 17.335938 27.75 17.398438 C 27.730469 17.519531 27.707031 17.652344 27.675781 17.785156 M 18.574219 15 C 18.574219 13.890625 18.730469 12.804688 19.03125 11.757812 C 21.039062 11.988281 22.605469 13.617188 22.699219 15.609375 L 22.699219 15.71875 C 22.699219 15.75 22.699219 15.769531 22.699219 15.800781 L 22.699219 17.8125 C 21.714844 16.675781 20.25 15.945312 18.605469 15.921875 C 18.585938 15.617188 18.574219 15.3125 18.574219 15 M 24.03125 6.113281 C 24.113281 6.195312 24.195312 6.265625 24.28125 6.347656 C 24.375 6.429688 24.457031 6.523438 24.539062 6.601562 C 24.621094 6.683594 24.695312 6.765625 24.777344 6.847656 C 24.863281 6.9375 24.945312 7.03125 25.015625 7.121094 C 25.089844 7.203125 25.164062 7.285156 25.234375 7.375 C 25.320312 7.46875 25.390625 7.570312 25.464844 7.660156 C 25.527344 7.742188 25.597656 7.832031 25.660156 7.914062 C 25.734375 8.015625 25.808594 8.117188 25.871094 8.207031 C 25.929688 8.300781 25.992188 8.382812 26.054688 8.472656 C 26.128906 8.574219 26.191406 8.675781 26.253906 8.789062 C 26.304688 8.878906 26.367188 8.972656 26.421875 9.0625 C 26.480469 9.175781 26.542969 9.277344 26.597656 9.386719 C 26.648438 9.480469 26.699219 9.570312 26.742188 9.664062 C 26.792969 9.773438 26.847656 9.886719 26.898438 9.996094 C 26.9375 10.089844 26.992188 10.179688 27.023438 10.28125 C 27.0625 10.375 27.09375 10.464844 27.136719 10.558594 C 25.878906 10.789062 24.769531 11.441406 23.96875 12.367188 L 23.96875 6.074219 C 24.007812 6.09375 24.019531 6.105469 24.03125 6.113281 M 27.988281 15.710938 C 27.988281 15.78125 27.976562 15.863281 27.96875 15.933594 C 26.378906 15.984375 24.953125 16.707031 23.988281 17.824219 L 23.988281 15.8125 L 24 15.8125 C 24 15.761719 23.988281 15.71875 23.988281 15.667969 C 24.0625 13.675781 25.589844 12.050781 27.5625 11.765625 C 27.582031 11.828125 27.59375 11.886719 27.613281 11.949219 C 27.636719 12.039062 27.667969 12.140625 27.6875 12.234375 C 27.71875 12.367188 27.738281 12.496094 27.769531 12.628906 C 27.792969 12.722656 27.8125 12.8125 27.832031 12.90625 C 27.855469 13.046875 27.875 13.1875 27.894531 13.320312 C 27.90625 13.414062 27.925781 13.492188 27.9375 13.585938 C 27.957031 13.738281 27.96875 13.902344 27.976562 14.054688 C 27.988281 14.132812 28 14.207031 28 14.285156 C 28.007812 14.519531 28.019531 14.753906 28.019531 14.988281 C 28.007812 15.230469 28.007812 15.464844 27.988281 15.710938 M 22.699219 5.984375 L 22.699219 12.355469 C 21.890625 11.421875 20.746094 10.761719 19.449219 10.546875 C 20.15625 8.808594 21.265625 7.242188 22.699219 5.984375 M 18.785156 17.195312 C 20.902344 17.316406 22.597656 18.992188 22.699219 21.066406 L 22.699219 21.179688 C 22.699219 21.207031 22.699219 21.230469 22.699219 21.257812 L 22.699219 24.015625 C 20.652344 22.226562 19.28125 19.816406 18.785156 17.195312 "/>
</g>
</svg>
